<svg width="14" height="14" viewBox="0 0 14 14" fill="none" xmlns="http://www.w3.org/2000/svg">
<g clip-path="url(#clip0)">
<path fill-rule="evenodd" clip-rule="evenodd" d="M8.38508 10.539L13.5851 5.53899C13.7939 5.30826 13.9313 5.02189 13.9806 4.71463C14.0298 4.40736 13.9889 4.09239 13.8627 3.80793C13.7365 3.52347 13.5305 3.28174 13.2696 3.11206C13.0088 2.94238 12.7043 2.85204 12.3931 2.85199H1.61108C1.30084 2.8529 0.997492 2.94354 0.737609 3.11298C0.477725 3.28241 0.272404 3.52341 0.146404 3.80691C0.0204046 4.09041 -0.0208944 4.40431 0.0274875 4.71075C0.0758693 5.01719 0.211866 5.3031 0.419079 5.53399L5.61908 10.539C5.79434 10.7316 6.00788 10.8854 6.24603 10.9907C6.48418 11.096 6.7417 11.1503 7.00208 11.1503C7.26246 11.1503 7.51997 11.096 7.75813 10.9907C7.99628 10.8854 8.20982 10.7316 8.38508 10.539Z" fill="#6B7380"/>
</g>
<defs>
<clipPath id="clip0">
<rect width="14" height="14" fill="white"/>
</clipPath>
</defs>
</svg>
