<svg width="14" height="14" viewBox="0 0 14 14" fill="none" xmlns="http://www.w3.org/2000/svg">
<g clip-path="url(#clip0)">
<path fill-rule="evenodd" clip-rule="evenodd" d="M8.38499 10.5391L13.585 5.53905C13.7938 5.30832 13.9312 5.02195 13.9805 4.71469C14.0297 4.40742 13.9888 4.09245 13.8626 3.808C13.7364 3.52354 13.5304 3.2818 13.2695 3.11212C13.0087 2.94244 12.7042 2.8521 12.393 2.85205H1.61099C1.30075 2.85296 0.997401 2.9436 0.737517 3.11304C0.477633 3.28248 0.272313 3.52347 0.146313 3.80697C0.020313 4.09047 -0.0209859 4.40437 0.0273959 4.71081C0.0757778 5.01725 0.211774 5.30316 0.418988 5.53405L5.61899 10.5391C5.79425 10.7316 6.00779 10.8855 6.24594 10.9907C6.48409 11.096 6.7416 11.1504 7.00199 11.1504C7.26237 11.1504 7.51988 11.096 7.75804 10.9907C7.99619 10.8855 8.20973 10.7316 8.38499 10.5391Z" fill="white"/>
</g>
<defs>
<clipPath id="clip0">
<rect width="14" height="14" fill="white"/>
</clipPath>
</defs>
</svg>
