<svg width="14" height="14" viewBox="0 0 14 14" fill="none" xmlns="http://www.w3.org/2000/svg">
<g clip-path="url(#clip0)">
<path fill-rule="evenodd" clip-rule="evenodd" d="M2.9999 1.46601C2.99678 1.85081 3.13973 2.22248 3.3999 2.50601L7.6519 7.00001L3.4049 11.494C3.14438 11.7767 2.99976 12.1471 2.99976 12.5315C2.99976 12.9159 3.14438 13.2863 3.4049 13.569C3.5295 13.705 3.681 13.8135 3.8498 13.8878C4.01859 13.962 4.20099 14.0004 4.3854 14.0004C4.56981 14.0004 4.7522 13.962 4.921 13.8878C5.08979 13.8135 5.2413 13.705 5.3659 13.569L10.5929 8.03701C10.8545 7.75546 10.9999 7.38535 10.9999 7.00101C10.9999 6.61668 10.8545 6.24657 10.5929 5.96501L5.3659 0.431013C5.2413 0.295063 5.08979 0.186509 4.921 0.112246C4.7522 0.0379831 4.56981 -0.000366211 4.3854 -0.000366211C4.20099 -0.000366211 4.01859 0.0379831 3.8498 0.112246C3.681 0.186509 3.5295 0.295063 3.4049 0.431013C3.14322 0.711977 2.9984 1.08207 2.9999 1.46601Z" fill="#6B7380"/>
</g>
<defs>
<clipPath id="clip0">
<rect width="14" height="14" fill="white"/>
</clipPath>
</defs>
</svg>
