<svg width="20" height="20" viewBox="0 0 20 20" fill="none" xmlns="http://www.w3.org/2000/svg">
<g clip-path="url(#clip0)">
<path d="M19.6873 12.4359C18.3518 17.7931 12.9258 21.0534 7.56796 19.7175C2.21238 18.3819 -1.0479 12.9556 0.288255 7.59882C1.62324 2.24104 7.04921 -1.01949 12.4054 0.31608C17.7628 1.65165 21.0229 7.07855 19.6872 12.436L19.6873 12.4359H19.6873Z" fill="#F7931A"/>
<path d="M14.4096 8.57748C14.6086 7.24669 13.5955 6.53135 12.21 6.05414L12.6595 4.25148L11.5622 3.97805L11.1246 5.73325C10.8362 5.6613 10.5399 5.59351 10.2455 5.5263L10.6861 3.75951L9.58949 3.48608L9.13981 5.28816C8.90108 5.2338 8.66661 5.18009 8.43912 5.12348L8.4404 5.11781L6.92715 4.73993L6.63524 5.91195C6.63524 5.91195 7.44937 6.09857 7.43222 6.11006C7.87658 6.22097 7.95693 6.51512 7.94359 6.74827L7.43163 8.80193C7.46223 8.8097 7.50192 8.82094 7.54571 8.83854C7.5091 8.82945 7.47015 8.81953 7.42972 8.80985L6.71213 11.6867C6.65782 11.8217 6.51999 12.0243 6.20931 11.9474C6.22031 11.9633 5.41175 11.7484 5.41175 11.7484L4.86694 13.0045L6.29495 13.3604C6.5606 13.4271 6.82093 13.4968 7.0773 13.5623L6.62322 15.3856L7.71928 15.6591L8.16897 13.8551C8.4684 13.9364 8.75899 14.0114 9.04347 14.082L8.59529 15.8775L9.69268 16.1509L10.1467 14.331C12.0179 14.6852 13.4249 14.5424 14.0171 12.8499C14.4943 11.4872 13.9934 10.7013 13.0089 10.1887C13.7259 10.0234 14.266 9.55178 14.41 8.57762L14.4097 8.57738L14.4096 8.57748ZM11.9025 12.0932C11.5633 13.4558 9.26904 12.7192 8.5252 12.5345L9.12778 10.1189C9.87158 10.3046 12.2569 10.672 11.9025 12.0932H11.9025ZM12.2418 8.55773C11.9325 9.7972 10.0229 9.1675 9.40346 9.01309L9.94978 6.82228C10.5692 6.97669 12.5641 7.26488 12.2419 8.55773H12.2418Z" fill="white"/>
</g>
<defs>
<clipPath id="clip0">
<rect width="20" height="20" fill="white"/>
</clipPath>
</defs>
</svg>
