<svg width="25" height="31" viewBox="0 0 25 31" fill="none" xmlns="http://www.w3.org/2000/svg">
<path fill-rule="evenodd" clip-rule="evenodd" d="M1.24412 24.1602C0.472145 23.688 0 22.8472 0 21.9442V16.9022C0 16.7092 0.0516948 16.5232 0.148191 16.3578C0.448021 15.8408 1.11316 15.6651 1.63011 15.9683L13.0099 22.6024C13.675 22.9919 14.0851 23.7019 14.0851 24.4738V29.6985C14.0851 29.9362 14.0196 30.174 13.8956 30.3774C13.5199 30.9908 12.7203 31.1838 12.1069 30.8081L1.24412 24.1602ZM18.2069 14.5863C18.872 14.9758 19.2821 15.6858 19.2821 16.4577V27.0585C19.2821 27.3722 19.1132 27.6616 18.841 27.8133L16.3493 29.216C16.3183 29.2332 16.2838 29.247 16.2494 29.2573V23.371C16.2494 22.6093 15.8496 21.9029 15.1948 21.51L5.20049 15.5307V8.88615C5.20049 8.69314 5.25219 8.50705 5.34868 8.34163C5.64851 7.82467 6.31365 7.64891 6.8306 7.95219L18.2069 14.5863ZM23.1868 6.75632C23.8554 7.14231 24.2655 7.85914 24.2655 8.63112V24.1155C24.2655 24.4325 24.0898 24.7254 23.8106 24.877L21.4498 26.1522V15.3721C21.4498 14.6105 21.0501 13.9074 20.3988 13.5145L10.1839 7.387V1.08368C10.1839 0.89069 10.2356 0.704589 10.3286 0.539165C10.6284 0.0222185 11.2936 -0.153543 11.8105 0.146286L23.1868 6.75632Z" fill="#00D395"/>
</svg>
