<svg width="91" height="20" viewBox="0 0 91 20" fill="none" xmlns="http://www.w3.org/2000/svg">
<path fill-rule="evenodd" clip-rule="evenodd" d="M89.3312 11.3753C89.3312 10.2057 88.6317 9.32518 87.5277 9.32518C86.4237 9.32518 85.7235 10.2057 85.7235 11.3753C85.7235 12.5447 86.4237 13.4253 87.5277 13.4253C88.634 13.4275 89.3312 12.547 89.3312 11.3753ZM89.277 8.54037V5.47647C89.277 5.27413 89.4146 5.09848 89.6132 5.04734L91.2632 4.61377V14.9816H89.4327V14.1012C88.9724 14.7615 88.1459 15.1484 87.1118 15.1484C84.988 15.1484 83.7441 13.4697 83.7441 11.3775C83.7441 9.28518 84.988 7.60652 87.1118 7.60652C88.1437 7.6043 88.9002 8.04452 89.277 8.54037ZM78.0148 7.76881V8.64933C78.351 8.02896 79.1053 7.60207 80.1951 7.60207C81.9564 7.60207 82.8927 8.75822 82.8927 10.4792V14.9816H80.9088V10.7016C80.9088 9.86104 80.5455 9.28296 79.6649 9.28296C78.7007 9.28296 78.1705 9.88778 78.1705 10.8527V14.9816H76.1866V7.76881H78.0148ZM71.5472 15.1484C69.4095 15.1484 68.2198 14.239 68.2198 11.8999V7.76881H70.204V11.9267C70.204 12.9316 70.6646 13.3985 71.545 13.3985C72.4253 13.3985 72.8859 12.9294 72.8859 11.9267V7.76881H74.8701V11.8977C74.8746 14.239 73.685 15.1484 71.5472 15.1484ZM61.6687 11.3753C61.6687 12.6693 62.4792 13.4253 63.5266 13.4253C64.5741 13.4253 65.3845 12.667 65.3845 11.3753C65.3845 10.0834 64.5741 9.32518 63.5266 9.32518C62.4814 9.32518 61.6687 10.0812 61.6687 11.3753ZM63.5288 15.1484C61.1811 15.1484 59.6844 13.4275 59.6844 11.3775C59.6844 9.32748 61.1788 7.60652 63.5288 7.60652C65.8766 7.60652 67.3732 9.32748 67.3732 11.3775C67.371 13.4275 65.8766 15.1484 63.5288 15.1484ZM53.6368 11.3753C53.6368 12.5447 54.3366 13.4253 55.4405 13.4253C56.5444 13.4253 57.2442 12.5447 57.2442 11.3753C57.2442 10.2057 56.5444 9.32518 55.4405 9.32518C54.3366 9.32518 53.6368 10.2057 53.6368 11.3753ZM53.6932 14.2123V17.2117C53.6932 17.4141 53.5555 17.5897 53.3569 17.6408L51.709 18.0678V7.76881H53.5397V8.64933C54.0002 7.98896 54.8265 7.60207 55.8604 7.60207C57.9846 7.60207 59.2284 9.28074 59.2284 11.373C59.2284 13.4653 57.9846 15.1439 55.8604 15.1439C54.8242 15.1484 54.0702 14.7081 53.6932 14.2123ZM45.8148 10.8794V14.9816H43.8306V10.7016C43.8306 9.90333 43.5371 9.28296 42.6567 9.28296C41.7334 9.28296 41.23 9.87444 41.23 10.8394V14.9839H39.2457V7.76881H41.0765V8.64933C41.4128 8.02896 42.1398 7.60207 43.1872 7.60207C44.1804 7.60207 44.8916 7.98674 45.3115 8.62037C45.9548 7.91778 46.6953 7.60207 47.7427 7.60207C49.5035 7.60207 50.3974 8.80052 50.3974 10.4792V14.9816H48.4131V10.7016C48.4131 9.90333 48.1197 9.28296 47.2392 9.28296C46.3025 9.28296 45.8148 9.87444 45.8148 10.8794ZM32.6247 11.3753C32.6247 12.6693 33.4351 13.4253 34.4825 13.4253C35.53 13.4253 36.3404 12.667 36.3404 11.3753C36.3404 10.0834 35.53 9.32518 34.4825 9.32518C33.4351 9.32518 32.6247 10.0812 32.6247 11.3753ZM34.4825 15.1484C32.1348 15.1484 30.6382 13.4275 30.6382 11.3775C30.6382 9.32748 32.1326 7.60652 34.4825 7.60652C36.8325 7.60652 38.3269 9.32748 38.3269 11.3775C38.3269 13.4275 36.8303 15.1484 34.4825 15.1484ZM20.342 10.0812C20.342 7.02619 22.4799 5.00065 25.3309 5.00065C27.8051 5.00065 29.7623 6.44588 30.1393 8.82718H27.9586C27.6651 7.60207 26.6583 6.9128 25.3309 6.9128C23.5137 6.9128 22.4934 8.15126 22.4934 10.079C22.4934 12.0067 23.5137 13.2451 25.3309 13.2451C26.6583 13.2451 27.6651 12.5559 27.9586 11.3307H30.1393C29.7623 13.7121 27.8051 15.1573 25.3309 15.1573C22.4799 15.1617 20.342 13.1384 20.342 10.0812Z" fill="#070A0D"/>
<path fill-rule="evenodd" clip-rule="evenodd" d="M0.814931 15.5873C0.309267 15.2826 0 14.7401 0 14.1576V10.9047C0 10.7801 0.0338614 10.6601 0.0970692 10.5534C0.293465 10.2198 0.729148 10.1065 1.06776 10.3021L8.52181 14.5822C8.95748 14.8335 9.22612 15.2916 9.22612 15.7896V19.1603C9.22612 19.3137 9.18318 19.4671 9.10196 19.5983C8.85588 19.9941 8.33214 20.1186 7.93031 19.8762L0.814931 15.5873ZM11.926 9.41052C12.3616 9.66178 12.6303 10.1199 12.6303 10.6178V17.4571C12.6303 17.6595 12.5196 17.8462 12.3413 17.9441L10.7092 18.849C10.6889 18.8601 10.6663 18.869 10.6438 18.8757V15.0781C10.6438 14.5867 10.3819 14.1309 9.95299 13.8774L3.40645 10.0198V5.733C3.40645 5.60848 3.44032 5.48842 3.50352 5.38169C3.69992 5.04818 4.1356 4.93478 4.47421 5.13044L11.926 9.41052ZM15.188 4.35892C15.6259 4.60794 15.8945 5.07041 15.8945 5.56847V15.5584C15.8945 15.7629 15.7794 15.9518 15.5966 16.0497L14.0502 16.8724V9.91748C14.0502 9.42615 13.7884 8.97252 13.3617 8.71904L6.67069 4.76581V0.699151C6.67069 0.574639 6.70455 0.454574 6.7655 0.347849C6.9619 0.0143345 7.39758 -0.0990602 7.7362 0.0943783L15.188 4.35892Z" fill="#00D395"/>
</svg>
