<svg width="20" height="20" viewBox="0 0 20 20" fill="none" xmlns="http://www.w3.org/2000/svg">
<path d="M10 20C15.523 20 20 15.523 20 10C20 4.477 15.523 0 10 0C4.477 0 0 4.477 0 10C0 15.523 4.477 20 10 20Z" fill="#070A0E"/>
<path fill-rule="evenodd" clip-rule="evenodd" d="M5.77717 13.353C5.47817 13.17 5.29517 12.845 5.29517 12.495V10.541C5.29517 10.309 5.48417 10.121 5.71617 10.122C5.79017 10.122 5.86317 10.142 5.92717 10.179L10.3362 12.75C10.5942 12.9 10.7532 13.176 10.7532 13.475V15.499C10.7542 15.777 10.5292 16.003 10.2512 16.003C10.1582 16.003 10.0662 15.977 9.98717 15.929L5.77717 13.353ZM12.3492 9.64403C12.6072 9.79403 12.7652 10.071 12.7662 10.369V14.477C12.7662 14.598 12.7012 14.71 12.5952 14.769L11.6302 15.312C11.6182 15.319 11.6052 15.324 11.5912 15.328V13.047C11.5912 12.752 11.4362 12.478 11.1822 12.326L7.31017 10.01V7.43503C7.31017 7.20303 7.49917 7.01503 7.73117 7.01603C7.80517 7.01603 7.87817 7.03603 7.94217 7.07303L12.3492 9.64403ZM14.2792 6.61003C14.5382 6.76003 14.6972 7.03703 14.6972 7.33603V13.336C14.6962 13.459 14.6282 13.572 14.5202 13.631L13.6052 14.125V9.94803C13.6052 9.65303 13.4502 9.38003 13.1982 9.22803L9.24017 6.85403V4.41203C9.24017 4.33803 9.26017 4.26503 9.29617 4.20103C9.41317 4.00103 9.67017 3.93303 9.87017 4.04903L14.2792 6.61003Z" fill="#00D395"/>
</svg>
