<svg width="20" height="20" viewBox="0 0 20 20" fill="none" xmlns="http://www.w3.org/2000/svg">
<path d="M10 0C15.5234 0 20 4.47754 20 10C20 15.5234 15.5234 20 10 20C4.47754 20 0 15.5229 0 10C0 4.47754 4.47754 0 10 0Z" fill="#F5AC37"/>
<path d="M10.3655 10.7061H14.1653C14.2463 10.7061 14.2846 10.7061 14.2904 10.5999C14.3215 10.2134 14.3215 9.82458 14.2904 9.43758C14.2904 9.36243 14.2531 9.33138 14.1716 9.33138H6.6093C6.5157 9.33138 6.4905 9.36243 6.4905 9.45018V10.5626C6.4905 10.7061 6.4905 10.7061 6.64035 10.7061H10.3655ZM13.8661 8.03131C13.8769 8.00296 13.8769 7.97191 13.8661 7.94401C13.8026 7.80586 13.7275 7.67401 13.6402 7.55026C13.5088 7.33876 13.354 7.1439 13.1776 6.96885C13.0943 6.8631 12.998 6.76815 12.89 6.6876C12.3491 6.22724 11.706 5.90144 11.0148 5.73764C10.6661 5.65934 10.3097 5.62199 9.95238 5.62514H6.59625C6.50265 5.62514 6.49005 5.66249 6.49005 5.74394V7.96246C6.49005 8.05606 6.49005 8.08126 6.60885 8.08126H13.8211C13.8211 8.08126 13.8836 8.06866 13.8962 8.03131H13.8656H13.8661ZM13.8661 12.0062C13.7599 11.9945 13.6528 11.9945 13.5466 12.0062H6.6156C6.522 12.0062 6.4905 12.0062 6.4905 12.1313V14.3003C6.4905 14.4002 6.4905 14.4254 6.6156 14.4254H9.81558C9.96858 14.4371 10.1216 14.4263 10.2714 14.3944C10.7358 14.3611 11.1926 14.2603 11.6282 14.0942C11.7866 14.0393 11.9396 13.9678 12.0841 13.8818H12.1277C12.8779 13.4917 13.4872 12.8788 13.8715 12.1264C13.8715 12.1264 13.9151 12.0319 13.8661 12.0071V12.0062ZM5.23453 15.55V15.5126V14.0564V13.5628V12.094C5.23453 12.0125 5.23453 12.0004 5.13463 12.0004H3.77832C3.70317 12.0004 3.67212 12.0004 3.67212 11.9005V10.7129H5.12203C5.20303 10.7129 5.23453 10.7129 5.23453 10.6067V9.43173C5.23453 9.35658 5.23453 9.33813 5.13463 9.33813H3.77832C3.70317 9.33813 3.67212 9.33813 3.67212 9.23822V8.13841C3.67212 8.06956 3.67212 8.05111 3.77202 8.05111H5.11573C5.20933 8.05111 5.23453 8.05111 5.23453 7.93231V4.56358C5.23453 4.46368 5.23453 4.43848 5.35964 4.43848H10.0469C10.3871 4.45198 10.725 4.48933 11.0594 4.55098C11.7484 4.67833 12.4103 4.92448 13.0156 5.27593C13.417 5.51219 13.7864 5.79749 14.1154 6.12599C14.3629 6.38295 14.5861 6.66105 14.7841 6.95715C14.9807 7.25731 15.1441 7.57816 15.2723 7.91341C15.2881 8.00071 15.3718 8.05966 15.4591 8.04481H16.5778C16.7213 8.04481 16.7213 8.04481 16.7276 8.18251V9.20762C16.7276 9.30753 16.6903 9.33273 16.5899 9.33273H15.7273C15.64 9.33273 15.6148 9.33273 15.6211 9.44523C15.6553 9.82593 15.6553 10.208 15.6211 10.5887C15.6211 10.6949 15.6211 10.7075 15.7403 10.7075H16.7272C16.7708 10.7637 16.7272 10.82 16.7272 10.8767C16.7335 10.9491 16.7335 11.0225 16.7272 11.0949V11.8514C16.7272 11.9576 16.6961 11.9891 16.6021 11.9891H15.4208C15.3385 11.9734 15.2584 12.026 15.2395 12.1079C14.9582 12.8392 14.5082 13.4948 13.9268 14.0204C13.7144 14.2117 13.4912 14.3917 13.2581 14.5577C13.0079 14.7017 12.7645 14.8516 12.508 14.9704C12.0359 15.1828 11.5409 15.3394 11.0328 15.4388C10.5504 15.5252 10.0613 15.5644 9.57033 15.5576H5.23273V15.5513L5.23453 15.55Z" fill="#FEFEFD"/>
</svg>
