<svg width="14" height="14" viewBox="0 0 14 14" fill="none" xmlns="http://www.w3.org/2000/svg">
<g clip-path="url(#clip0)">
<path d="M8.271 1.66397L13.8 10.911C13.8959 11.0728 13.9581 11.2523 13.9831 11.4388C14.008 11.6252 13.9952 11.8148 13.9452 11.9961C13.8953 12.1775 13.8093 12.3469 13.6924 12.4943C13.5756 12.6417 13.4302 12.764 13.265 12.854C13.0399 12.9793 12.7866 13.045 12.529 13.045H1.469C1.08582 13.0511 0.715876 12.9049 0.440432 12.6385C0.164987 12.372 0.00657623 12.0071 0 11.624C0.000766832 11.3726 0.0699012 11.1261 0.2 10.911L5.729 1.66397C5.93259 1.33594 6.25481 1.09904 6.62864 1.00255C7.00246 0.906072 7.39909 0.957442 7.736 1.14597C7.9563 1.26923 8.14069 1.44777 8.271 1.66397ZM7 11.755C7.21618 11.755 7.4275 11.6909 7.60724 11.5708C7.78698 11.4507 7.92707 11.28 8.0098 11.0802C8.09253 10.8805 8.11417 10.6608 8.072 10.4487C8.02983 10.2367 7.92573 10.042 7.77287 9.88911C7.62001 9.73625 7.42526 9.63215 7.21323 9.58998C7.00121 9.5478 6.78145 9.56945 6.58173 9.65217C6.38201 9.7349 6.2113 9.87499 6.0912 10.0547C5.9711 10.2345 5.907 10.4458 5.907 10.662C5.907 10.9519 6.02216 11.2299 6.22713 11.4348C6.43211 11.6398 6.71012 11.755 7 11.755ZM7 3.89998C6.94652 3.90032 6.89311 3.90366 6.84 3.90998C6.50171 3.95243 6.19409 4.12738 5.98467 4.39642C5.77525 4.66547 5.68114 5.00661 5.723 5.34497L6.181 7.85997C6.20527 8.06011 6.30198 8.24444 6.45288 8.37814C6.60377 8.51184 6.7984 8.58566 7 8.58566C7.2016 8.58566 7.39623 8.51184 7.54712 8.37814C7.69802 8.24444 7.79473 8.06011 7.819 7.85997L8.277 5.34497C8.28332 5.29187 8.28666 5.23845 8.287 5.18497C8.28647 4.84399 8.15064 4.51715 7.90934 4.27622C7.66804 4.03529 7.34099 3.89997 7 3.89998Z" fill="#FC5A5A"/>
</g>
<defs>
<clipPath id="clip0">
<rect width="14" height="14" fill="white"/>
</clipPath>
</defs>
</svg>
