<svg width="20" height="20" viewBox="0 0 20 20" fill="none" xmlns="http://www.w3.org/2000/svg">
<path d="M10 20C15.5228 20 20 15.5228 20 10C20 4.47715 15.5228 0 10 0C4.47715 0 0 4.47715 0 10C0 15.5228 4.47715 20 10 20Z" fill="url(#paint0_linear)"/>
<path d="M10.6901 13.3621L6.75895 17.2931L5.63795 16.0862L8.36217 13.3621L5.53455 10.5345L6.74145 9.32764L10.6901 13.3621ZM12.9832 11.1034L14.1901 9.89664L11.3622 7.06904L14.0863 4.34484L12.9656 3.13794L9.01727 7.06904L12.9829 11.1034H12.9832ZM7.24146 8.86214L11.207 12.8966L12.4139 11.69L8.44837 7.72414L7.24146 8.86214Z" fill="white"/>
<defs>
<linearGradient id="paint0_linear" x1="-0.2" y1="10" x2="23.2" y2="10" gradientUnits="userSpaceOnUse">
<stop stop-color="#08BBC9"/>
<stop offset="0.5" stop-color="#12A3CA"/>
<stop offset="1" stop-color="#149ACA"/>
</linearGradient>
</defs>
</svg>
