<svg width="20" height="20" viewBox="0 0 20 20" fill="none" xmlns="http://www.w3.org/2000/svg">
<path d="M10 20C15.5228 20 20 15.5228 20 10C20 4.47715 15.5228 0 10 0C4.47715 0 0 4.47715 0 10C0 15.5228 4.47715 20 10 20Z" fill="url(#paint0_linear)"/>
<path d="M5.07796 12.9999V8.29328L8.64729 10.9796V12.9999H9.55829V10.7899C9.55813 10.7078 9.53893 10.6269 9.5022 10.5534C9.46547 10.48 9.41222 10.416 9.34663 10.3666L5.01796 7.10762C4.93879 7.04881 4.84486 7.01311 4.74661 7.00449C4.64837 6.99586 4.54965 7.01464 4.46144 7.05875C4.37323 7.10285 4.29897 7.17055 4.24693 7.25433C4.19488 7.3381 4.16709 7.43466 4.16663 7.53329V12.9999H5.07796ZM14.9493 12.9999V8.29328L11.38 10.9796V12.9999H10.469V10.7899C10.4691 10.7078 10.4883 10.6269 10.5251 10.5534C10.5618 10.48 10.615 10.416 10.6806 10.3666L15.0093 7.10895C15.0884 7.05021 15.1822 7.01452 15.2803 7.00584C15.3784 6.99716 15.4771 7.01583 15.5652 7.05978C15.6534 7.10372 15.7277 7.17123 15.7798 7.25481C15.8319 7.33839 15.8599 7.43478 15.8606 7.53329V12.9999H14.9493Z" fill="white"/>
<defs>
<linearGradient id="paint0_linear" x1="10" y1="0" x2="10" y2="20" gradientUnits="userSpaceOnUse">
<stop stop-color="#4FA89B"/>
<stop offset="1" stop-color="#6ACEBB"/>
</linearGradient>
</defs>
</svg>
