<svg width="14" height="14" viewBox="0 0 14 14" fill="none" xmlns="http://www.w3.org/2000/svg">
<g clip-path="url(#clip0)">
<path d="M10.63 9.14902L10.613 9.23702C10.5813 9.39585 10.4955 9.53878 10.3702 9.64144C10.245 9.7441 10.088 9.80014 9.92599 9.80002H3.84999V8.06302C3.84974 7.96999 3.81397 7.88056 3.74999 7.81302C3.71813 7.77914 3.67988 7.75191 3.63743 7.7329C3.59499 7.71389 3.54919 7.70348 3.5027 7.70227C3.45621 7.70106 3.40994 7.70907 3.36656 7.72585C3.32319 7.74263 3.28357 7.76784 3.24999 7.80002L0.515992 10.455L0.499992 10.474C0.402 10.5796 0.349054 10.7192 0.352415 10.8632C0.355777 11.0072 0.415181 11.1442 0.517992 11.245L3.24799 13.9C3.31367 13.9644 3.40204 14.0003 3.49399 14C3.54127 13.9995 3.58798 13.9897 3.63146 13.9711C3.67493 13.9525 3.71433 13.9256 3.74739 13.8918C3.78044 13.858 3.80652 13.818 3.82413 13.7741C3.84173 13.7302 3.85052 13.6833 3.84999 13.636V11.9H10.5C11.0569 11.9 11.5911 11.6788 11.9849 11.2849C12.3787 10.8911 12.6 10.357 12.6 9.80002V9.34402C12.6 9.2134 12.5742 9.08406 12.5242 8.9634C12.4742 8.84274 12.4009 8.73312 12.3085 8.6408C12.2161 8.54849 12.1064 8.47529 11.9857 8.4254C11.865 8.3755 11.7356 8.34989 11.605 8.35002C11.3752 8.34995 11.1524 8.42952 10.9746 8.5752C10.7969 8.72087 10.6751 8.92365 10.63 9.14902Z" fill="#6B7380"/>
<path d="M3.36999 4.85L3.38699 4.762C3.4189 4.60335 3.50478 4.46066 3.63003 4.35819C3.75529 4.25573 3.91217 4.19983 4.07399 4.2H10.15V5.936C10.1503 6.02932 10.186 6.11904 10.25 6.187C10.2818 6.22093 10.3201 6.24819 10.3626 6.26719C10.4051 6.28619 10.451 6.29655 10.4975 6.29767C10.544 6.29878 10.5903 6.29064 10.6336 6.2737C10.677 6.25676 10.7165 6.23137 10.75 6.199L13.482 3.545L13.5 3.526C13.598 3.42045 13.6509 3.28083 13.6476 3.13684C13.6442 2.99286 13.5848 2.85586 13.482 2.755L10.752 0.1C10.6861 0.0359189 10.5979 4.44391e-05 10.506 0C10.4588 0.000391743 10.4121 0.0100995 10.3686 0.0285668C10.3251 0.0470342 10.2857 0.0738983 10.2527 0.10762C10.2196 0.141341 10.1935 0.181257 10.1759 0.22508C10.1583 0.268903 10.1495 0.315771 10.15 0.363V2.1H3.49999C2.94304 2.1 2.4089 2.32125 2.01507 2.71508C1.62124 3.1089 1.39999 3.64305 1.39999 4.2V4.655C1.39999 4.92022 1.50535 5.17457 1.69289 5.36211C1.88042 5.54964 2.13478 5.655 2.39999 5.655C2.62951 5.65252 2.85118 5.57116 3.0278 5.42458C3.20443 5.278 3.32525 5.07512 3.36999 4.85Z" fill="#6B7380"/>
</g>
<defs>
<clipPath id="clip0">
<rect width="14" height="14" fill="white"/>
</clipPath>
</defs>
</svg>
