<svg width="17" height="20" viewBox="0 0 17 20" fill="none" xmlns="http://www.w3.org/2000/svg">
<path d="M7.12153 19.4633C7.5761 20.0497 8.40947 20.1821 9.01556 19.7281C9.11026 19.6525 9.20496 19.5579 9.28072 19.4633C10.7959 17.4394 13.6938 15.8317 16.4212 15.5858L14.7166 12.3324C14.6787 12.3514 14.6597 12.3514 14.6219 12.3703C11.6861 14.0915 9.0345 15.5101 8.23901 15.5101C7.44352 15.5101 4.69718 14.0348 1.72356 12.2946L0 15.5669C2.72739 15.8128 5.56843 17.4205 7.12153 19.4633Z" fill="#00A09D"/>
<path d="M8.23924 13.8079C8.84533 13.6944 11.0803 12.4839 13.9213 10.8194L12.3682 7.86865C10.4174 8.94679 8.82639 9.70338 8.23924 9.70338C7.65209 9.70338 6.04217 8.92788 4.07239 7.84973L2.51929 10.8194C5.37926 12.4839 7.61421 13.6944 8.23924 13.8079Z" fill="#00A09D"/>
<path d="M8.23928 8.00097C8.67491 7.92532 9.88708 7.30113 11.5538 6.3743L11.5728 6.35538L8.22034 0L7.95518 0.453956L4.86792 6.33647C4.88686 6.35538 4.9058 6.3743 4.92474 6.3743C6.59148 7.32004 7.80366 7.92532 8.23928 8.00097Z" fill="#00A09D"/>
<path d="M1.72356 12.2946L0 15.5668C2.72739 15.8127 5.56843 17.4205 7.12153 19.4633C7.38669 19.8037 7.78444 20.0118 8.20112 19.9929V15.4912C7.36775 15.4722 4.67824 14.0347 1.72356 12.2946Z" fill="#008B88"/>
<path d="M4.07214 7.83063L2.51904 10.8003C5.34114 12.4648 7.57609 13.6753 8.20112 13.8077V9.70319C7.59503 9.68428 6.02299 8.90877 4.07214 7.83063Z" fill="#008B88"/>
<path d="M7.95493 0.472755L4.86768 6.33635C4.88662 6.35527 4.90556 6.37418 4.9245 6.37418C6.55336 7.30101 7.76553 7.90628 8.2201 8.00086V0.0187988L7.95493 0.472755Z" fill="#008B88"/>
</svg>
