<svg width="20" height="20" viewBox="0 0 20 20" fill="none" xmlns="http://www.w3.org/2000/svg">
<path d="M10 20C15.5417 20 20 15.5417 20 10C20 4.4583 15.5417 0 10 0C4.4583 0 0 4.4583 0 10C0 15.5417 4.4583 20 10 20Z" fill="#2775CA"/>
<path d="M12.75 11.5833C12.75 10.1251 11.875 9.62506 10.125 9.41676C8.87502 9.25006 8.62503 8.91676 8.62503 8.33336C8.62503 7.74996 9.04172 7.37507 9.87501 7.37507C10.625 7.37507 11.0417 7.62506 11.25 8.25006C11.2917 8.37506 11.4167 8.45836 11.5417 8.45836H12.2083C12.375 8.45836 12.5 8.33336 12.5 8.16676V8.12506C12.3333 7.20837 11.5833 6.50007 10.625 6.41677V5.41677C10.625 5.25007 10.5 5.12507 10.2917 5.08337H9.66671C9.50002 5.08337 9.37502 5.20837 9.33332 5.41677V6.37507C8.08334 6.54177 7.29175 7.37507 7.29175 8.41676C7.29175 9.79176 8.12504 10.3334 9.87501 10.5418C11.0417 10.7501 11.4167 11.0001 11.4167 11.6667C11.4167 12.3334 10.8333 12.7917 10.0417 12.7917C8.95832 12.7917 8.58333 12.3333 8.45833 11.7083C8.41673 11.5417 8.29173 11.4583 8.16673 11.4583H7.45834C7.29175 11.4583 7.16675 11.5833 7.16675 11.75V11.7917C7.33335 12.8333 8.00004 13.5833 9.37502 13.7917V14.7917C9.37502 14.9583 9.50002 15.0833 9.70831 15.125H10.3333C10.5 15.125 10.625 15 10.6667 14.7917V13.7917C11.9167 13.5833 12.75 12.7083 12.75 11.5833Z" fill="white"/>
<path d="M7.87484 15.9583C4.62484 14.7917 2.95814 11.1667 4.16654 7.95829C4.79154 6.20829 6.16654 4.87499 7.87484 4.24999C8.04154 4.16669 8.12484 4.04169 8.12484 3.83329V3.24999C8.12484 3.08329 8.04154 2.95829 7.87484 2.91669C7.83314 2.91669 7.74984 2.91669 7.70814 2.95829C3.74984 4.20829 1.58314 8.41669 2.83314 12.375C3.58314 14.7083 5.37484 16.5 7.70814 17.25C7.87484 17.3333 8.04154 17.25 8.08314 17.0833C8.12484 17.0417 8.12484 17 8.12484 16.9167V16.3333C8.12484 16.2083 7.99984 16.0417 7.87484 15.9583ZM12.2915 2.95829C12.1248 2.87499 11.9581 2.95829 11.9165 3.12499C11.8748 3.16669 11.8748 3.20829 11.8748 3.29169V3.87499C11.8748 4.04169 11.9998 4.20829 12.1248 4.29169C15.3748 5.45829 17.0415 9.08329 15.8331 12.2917C15.2081 14.0417 13.8331 15.375 12.1248 16C11.9581 16.0833 11.8748 16.2083 11.8748 16.4167V17C11.8748 17.1667 11.9581 17.2917 12.1248 17.3333C12.1665 17.3333 12.2498 17.3333 12.2915 17.2917C16.2498 16.0417 18.4165 11.8333 17.1665 7.87499C16.4165 5.49999 14.5831 3.70829 12.2915 2.95829Z" fill="white"/>
</svg>
