<svg width="20" height="20" viewBox="0 0 20 20" fill="none" xmlns="http://www.w3.org/2000/svg">
<g clip-path="url(#clip0)">
<path fill-rule="evenodd" clip-rule="evenodd" d="M3.66267 1.08545L0.015969 8.74535C0.00209222 8.77384 -0.00230523 8.80602 0.00341969 8.83719C0.00914462 8.86836 0.0246916 8.89688 0.047787 8.91858L9.89665 18.3562C9.92463 18.383 9.96189 18.398 10.0006 18.398C10.0394 18.398 10.0767 18.383 10.1046 18.3562L19.9535 8.91917C19.9766 8.89747 19.9922 8.86895 19.9979 8.83778C20.0036 8.80661 19.9992 8.77443 19.9853 8.74594L16.3386 1.08604C16.3269 1.06031 16.3079 1.03852 16.2841 1.02326C16.2603 1.00801 16.2326 0.999937 16.2043 1.00001H3.79819C3.76977 0.999658 3.74185 1.00754 3.7178 1.0227C3.69375 1.03786 3.67461 1.05965 3.66267 1.08545Z" fill="#50AF95"/>
<path fill-rule="evenodd" clip-rule="evenodd" d="M11.2652 9.53193C11.1945 9.53723 10.8292 9.55903 10.0143 9.55903C9.36612 9.55903 8.90594 9.53959 8.74449 9.53193C6.2397 9.42174 4.3701 8.98572 4.3701 8.46367C4.3701 7.94161 6.2397 7.50618 8.74449 7.39423V9.09767C8.90829 9.10945 9.37731 9.13715 10.0255 9.13715C10.8032 9.13715 11.1927 9.10474 11.2628 9.09826V7.3954C13.7623 7.50677 15.6278 7.94279 15.6278 8.46367C15.6278 8.98454 13.7629 9.42056 11.2628 9.53134L11.2652 9.53193ZM11.2652 7.21923V5.69491H14.7534V3.37042H5.25629V5.69491H8.7439V7.21864C5.90915 7.34886 3.77734 7.91039 3.77734 8.58328C3.77734 9.25617 5.90915 9.81711 8.7439 9.94792V14.8326H11.2646V9.94615C14.0929 9.81593 16.2211 9.25499 16.2211 8.58269C16.2211 7.91039 14.0946 7.34944 11.2646 7.21864L11.2652 7.21923Z" fill="white"/>
</g>
<defs>
<clipPath id="clip0">
<rect width="20" height="20" fill="white"/>
</clipPath>
</defs>
</svg>
